ply
format ascii 1.0
comment Created by Blender 2.77 (sub 0) - www.blender.org, source file: ''
element vertex 240
property float x
property float y
property float z
property float nx
property float ny
property float nz
element face 80
property list uchar uint vertex_indices
end_header
2.087212 -1.048572 0.256845 0.102381 -0.315090 -0.943523
2.512534 -1.357583 0.406191 0.102381 -0.315090 -0.943523
1.924756 -1.548567 0.406191 0.102381 -0.315090 -0.943523
2.810819 -1.574297 0.809626 0.700224 -0.268032 -0.661699
2.512534 -1.357583 0.406191 0.700224 -0.268032 -0.661699
2.937860 -1.048572 0.731110 0.700224 -0.268032 -0.661699
2.087212 -1.048572 0.256845 -0.268034 -0.194736 -0.943523
1.924756 -1.548567 0.406191 -0.268034 -0.194736 -0.943523
1.561482 -1.048572 0.406194 -0.268034 -0.194736 -0.943523
2.087212 -1.048572 0.256845 -0.268034 0.194737 -0.943523
1.561482 -1.048572 0.406194 -0.268034 0.194737 -0.943523
1.924756 -0.548576 0.406191 -0.268034 0.194737 -0.943523
2.087212 -1.048572 0.256845 0.102381 0.315090 -0.943524
1.924756 -0.548576 0.406191 0.102381 0.315090 -0.943524
2.512534 -0.739560 0.406191 0.102381 0.315090 -0.943524
2.810819 -1.574297 0.809626 0.904989 -0.268032 -0.330385
2.937860 -1.048572 0.731110 0.904989 -0.268032 -0.330385
3.038270 -1.357584 1.256845 0.904989 -0.268032 -0.330385
1.810824 -1.899221 0.809626 0.024746 -0.943521 -0.330386
2.350080 -1.857583 0.731108 0.024746 -0.943521 -0.330386
2.087212 -2.048572 1.256845 0.024746 -0.943521 -0.330386
1.192785 -1.048572 0.809630 -0.889697 -0.315095 -0.330385
1.399022 -1.548568 0.731109 -0.889697 -0.315095 -0.330385
1.136154 -1.357584 1.256845 -0.889697 -0.315095 -0.330385
1.810824 -0.197922 0.809626 -0.574602 0.748784 -0.330388
1.399022 -0.548575 0.731109 -0.574602 0.748784 -0.330388
1.499426 -0.239555 1.256845 -0.574602 0.748784 -0.330388
2.810819 -0.522846 0.809626 0.534576 0.777864 -0.330387
2.350080 -0.239560 0.731108 0.534576 0.777864 -0.330387
2.674997 -0.239555 1.256845 0.534576 0.777864 -0.330387
2.810819 -1.574297 0.809626 0.802609 -0.583126 -0.125627
3.038270 -1.357584 1.256845 0.802609 -0.583126 -0.125627
2.674997 -1.857588 1.256845 0.802609 -0.583126 -0.125627
1.810824 -1.899221 0.809626 -0.306569 -0.943522 -0.125629
2.087212 -2.048572 1.256845 -0.306569 -0.943522 -0.125629
1.499426 -1.857588 1.256845 -0.306569 -0.943522 -0.125629
1.192785 -1.048572 0.809630 -0.992077 -0.000000 -0.125628
1.136154 -1.357584 1.256845 -0.992077 -0.000000 -0.125628
1.136154 -0.739559 1.256845 -0.992077 -0.000000 -0.125628
1.810824 -0.197922 0.809626 -0.306569 0.943522 -0.125629
1.499426 -0.239555 1.256845 -0.306569 0.943522 -0.125629
2.087212 -0.048572 1.256845 -0.306569 0.943522 -0.125629
2.810819 -0.522846 0.809626 0.802609 0.583126 -0.125627
2.674997 -0.239555 1.256845 0.802609 0.583126 -0.125627
3.038270 -0.739559 1.256845 0.802609 0.583126 -0.125627
2.363600 -1.899221 1.704065 0.408946 -0.628425 0.661699
2.775401 -1.548568 1.782582 0.408946 -0.628425 0.661699
2.249667 -1.548567 2.107500 0.408946 -0.628425 0.661699
1.363604 -1.574297 1.704065 -0.471300 -0.583122 0.661699
1.824343 -1.857583 1.782583 -0.471300 -0.583122 0.661699
1.661889 -1.357583 2.107500 -0.471300 -0.583122 0.661699
1.363604 -0.522846 1.704065 -0.700224 0.268032 0.661699
1.236564 -1.048572 1.782581 -0.700224 0.268032 0.661699
1.661889 -0.739560 2.107500 -0.700224 0.268032 0.661699
2.363600 -0.197922 1.704065 0.038530 0.748779 0.661699
1.824343 -0.239560 1.782583 0.038530 0.748779 0.661699
2.249667 -0.548576 2.107500 0.038530 0.748779 0.661699
2.981638 -1.048572 1.704061 0.724042 0.194736 0.661696
2.775401 -0.548575 1.782582 0.724042 0.194736 0.661696
2.612941 -1.048572 2.107497 0.724042 0.194736 0.661696
2.612941 -1.048572 2.107497 0.268034 0.194737 0.943523
2.249667 -0.548576 2.107500 0.268034 0.194737 0.943523
2.087212 -1.048572 2.256845 0.268034 0.194737 0.943523
2.612941 -1.048572 2.107497 0.491119 0.356821 0.794658
2.775401 -0.548575 1.782582 0.491119 0.356821 0.794658
2.249667 -0.548576 2.107500 0.491119 0.356821 0.794658
2.775401 -0.548575 1.782582 0.408946 0.628425 0.661699
2.363600 -0.197922 1.704065 0.408946 0.628425 0.661699
2.249667 -0.548576 2.107500 0.408946 0.628425 0.661699
2.249667 -0.548576 2.107500 -0.102381 0.315090 0.943523
1.661889 -0.739560 2.107500 -0.102381 0.315090 0.943523
2.087212 -1.048572 2.256845 -0.102381 0.315090 0.943523
2.249667 -0.548576 2.107500 -0.187594 0.577345 0.794658
1.824343 -0.239560 1.782583 -0.187594 0.577345 0.794658
1.661889 -0.739560 2.107500 -0.187594 0.577345 0.794658
1.824343 -0.239560 1.782583 -0.471300 0.583122 0.661699
1.363604 -0.522846 1.704065 -0.471300 0.583122 0.661699
1.661889 -0.739560 2.107500 -0.471300 0.583122 0.661699
1.661889 -0.739560 2.107500 -0.331305 0.000000 0.943524
1.661889 -1.357583 2.107500 -0.331305 0.000000 0.943524
2.087212 -1.048572 2.256845 -0.331305 0.000000 0.943524
1.661889 -0.739560 2.107500 -0.607060 0.000000 0.794656
1.236564 -1.048572 1.782581 -0.607060 0.000000 0.794656
1.661889 -1.357583 2.107500 -0.607060 0.000000 0.794656
1.236564 -1.048572 1.782581 -0.700224 -0.268032 0.661699
1.363604 -1.574297 1.704065 -0.700224 -0.268032 0.661699
1.661889 -1.357583 2.107500 -0.700224 -0.268032 0.661699
1.661889 -1.357583 2.107500 -0.102381 -0.315090 0.943523
2.249667 -1.548567 2.107500 -0.102381 -0.315090 0.943523
2.087212 -1.048572 2.256845 -0.102381 -0.315090 0.943523
1.661889 -1.357583 2.107500 -0.187594 -0.577345 0.794658
1.824343 -1.857583 1.782583 -0.187594 -0.577345 0.794658
2.249667 -1.548567 2.107500 -0.187594 -0.577345 0.794658
1.824343 -1.857583 1.782583 0.038530 -0.748779 0.661699
2.363600 -1.899221 1.704065 0.038530 -0.748779 0.661699
2.249667 -1.548567 2.107500 0.038530 -0.748779 0.661699
2.249667 -1.548567 2.107500 0.268034 -0.194737 0.943523
2.612941 -1.048572 2.107497 0.268034 -0.194737 0.943523
2.087212 -1.048572 2.256845 0.268034 -0.194737 0.943523
2.249667 -1.548567 2.107500 0.491119 -0.356821 0.794658
2.775401 -1.548568 1.782582 0.491119 -0.356821 0.794658
2.612941 -1.048572 2.107497 0.491119 -0.356821 0.794658
2.775401 -1.548568 1.782582 0.724042 -0.194736 0.661696
2.981638 -1.048572 1.704061 0.724042 -0.194736 0.661696
2.612941 -1.048572 2.107497 0.724042 -0.194736 0.661696
3.038270 -0.739559 1.256845 0.889697 0.315095 0.330385
2.775401 -0.548575 1.782582 0.889697 0.315095 0.330385
2.981638 -1.048572 1.704061 0.889697 0.315095 0.330385
3.038270 -0.739559 1.256845 0.794656 0.577348 0.187595
2.674997 -0.239555 1.256845 0.794656 0.577348 0.187595
2.775401 -0.548575 1.782582 0.794656 0.577348 0.187595
2.674997 -0.239555 1.256845 0.574602 0.748784 0.330388
2.363600 -0.197922 1.704065 0.574602 0.748784 0.330388
2.775401 -0.548575 1.782582 0.574602 0.748784 0.330388
2.087212 -0.048572 1.256845 -0.024747 0.943521 0.330386
1.824343 -0.239560 1.782583 -0.024747 0.943521 0.330386
2.363600 -0.197922 1.704065 -0.024747 0.943521 0.330386
2.087212 -0.048572 1.256845 -0.303531 0.934171 0.187597
1.499426 -0.239555 1.256845 -0.303531 0.934171 0.187597
1.824343 -0.239560 1.782583 -0.303531 0.934171 0.187597
1.499426 -0.239555 1.256845 -0.534576 0.777865 0.330387
1.363604 -0.522846 1.704065 -0.534576 0.777865 0.330387
1.824343 -0.239560 1.782583 -0.534576 0.777865 0.330387
1.136154 -0.739559 1.256845 -0.904989 0.268032 0.330385
1.236564 -1.048572 1.782581 -0.904989 0.268032 0.330385
1.363604 -0.522846 1.704065 -0.904989 0.268032 0.330385
1.136154 -0.739559 1.256845 -0.982246 0.000000 0.187599
1.136154 -1.357584 1.256845 -0.982246 0.000000 0.187599
1.236564 -1.048572 1.782581 -0.982246 0.000000 0.187599
1.136154 -1.357584 1.256845 -0.904989 -0.268032 0.330385
1.363604 -1.574297 1.704065 -0.904989 -0.268032 0.330385
1.236564 -1.048572 1.782581 -0.904989 -0.268032 0.330385
1.499426 -1.857588 1.256845 -0.534576 -0.777865 0.330386
1.824343 -1.857583 1.782583 -0.534576 -0.777865 0.330386
1.363604 -1.574297 1.704065 -0.534576 -0.777865 0.330386
1.499426 -1.857588 1.256845 -0.303531 -0.934171 0.187597
2.087212 -2.048572 1.256845 -0.303531 -0.934171 0.187597
1.824343 -1.857583 1.782583 -0.303531 -0.934171 0.187597
2.087212 -2.048572 1.256845 -0.024746 -0.943521 0.330386
2.363600 -1.899221 1.704065 -0.024746 -0.943521 0.330386
1.824343 -1.857583 1.782583 -0.024746 -0.943521 0.330386
2.674997 -1.857588 1.256845 0.574602 -0.748784 0.330388
2.775401 -1.548568 1.782582 0.574602 -0.748784 0.330388
2.363600 -1.899221 1.704065 0.574602 -0.748784 0.330388
2.674997 -1.857588 1.256845 0.794656 -0.577348 0.187595
3.038270 -1.357584 1.256845 0.794656 -0.577348 0.187595
2.775401 -1.548568 1.782582 0.794656 -0.577348 0.187595
3.038270 -1.357584 1.256845 0.889697 -0.315095 0.330385
2.981638 -1.048572 1.704061 0.889697 -0.315095 0.330385
2.775401 -1.548568 1.782582 0.889697 -0.315095 0.330385
2.674997 -0.239555 1.256845 0.306569 0.943522 0.125629
2.087212 -0.048572 1.256845 0.306569 0.943522 0.125629
2.363600 -0.197922 1.704065 0.306569 0.943522 0.125629
2.674997 -0.239555 1.256845 0.303531 0.934171 -0.187597
2.350080 -0.239560 0.731108 0.303531 0.934171 -0.187597
2.087212 -0.048572 1.256845 0.303531 0.934171 -0.187597
2.350080 -0.239560 0.731108 0.024747 0.943521 -0.330386
1.810824 -0.197922 0.809626 0.024747 0.943521 -0.330386
2.087212 -0.048572 1.256845 0.024747 0.943521 -0.330386
1.499426 -0.239555 1.256845 -0.802609 0.583127 0.125627
1.136154 -0.739559 1.256845 -0.802609 0.583127 0.125627
1.363604 -0.522846 1.704065 -0.802609 0.583127 0.125627
1.499426 -0.239555 1.256845 -0.794656 0.577348 -0.187595
1.399022 -0.548575 0.731109 -0.794656 0.577348 -0.187595
1.136154 -0.739559 1.256845 -0.794656 0.577348 -0.187595
1.399022 -0.548575 0.731109 -0.889697 0.315095 -0.330385
1.192785 -1.048572 0.809630 -0.889697 0.315095 -0.330385
1.136154 -0.739559 1.256845 -0.889697 0.315095 -0.330385
1.136154 -1.357584 1.256845 -0.802609 -0.583127 0.125627
1.499426 -1.857588 1.256845 -0.802609 -0.583127 0.125627
1.363604 -1.574297 1.704065 -0.802609 -0.583127 0.125627
1.136154 -1.357584 1.256845 -0.794656 -0.577348 -0.187595
1.399022 -1.548568 0.731109 -0.794656 -0.577348 -0.187595
1.499426 -1.857588 1.256845 -0.794656 -0.577348 -0.187595
1.399022 -1.548568 0.731109 -0.574602 -0.748783 -0.330388
1.810824 -1.899221 0.809626 -0.574602 -0.748783 -0.330388
1.499426 -1.857588 1.256845 -0.574602 -0.748783 -0.330388
2.087212 -2.048572 1.256845 0.306569 -0.943522 0.125629
2.674997 -1.857588 1.256845 0.306569 -0.943522 0.125629
2.363600 -1.899221 1.704065 0.306569 -0.943522 0.125629
2.087212 -2.048572 1.256845 0.303531 -0.934171 -0.187597
2.350080 -1.857583 0.731108 0.303531 -0.934171 -0.187597
2.674997 -1.857588 1.256845 0.303531 -0.934171 -0.187597
2.350080 -1.857583 0.731108 0.534576 -0.777865 -0.330387
2.810819 -1.574297 0.809626 0.534576 -0.777865 -0.330387
2.674997 -1.857588 1.256845 0.534576 -0.777865 -0.330387
3.038270 -1.357584 1.256845 0.992077 0.000000 0.125628
3.038270 -0.739559 1.256845 0.992077 0.000000 0.125628
2.981638 -1.048572 1.704061 0.992077 0.000000 0.125628
3.038270 -1.357584 1.256845 0.982246 0.000000 -0.187599
2.937860 -1.048572 0.731110 0.982246 0.000000 -0.187599
3.038270 -0.739559 1.256845 0.982246 0.000000 -0.187599
2.937860 -1.048572 0.731110 0.904989 0.268032 -0.330385
2.810819 -0.522846 0.809626 0.904989 0.268032 -0.330385
3.038270 -0.739559 1.256845 0.904989 0.268032 -0.330385
2.512534 -0.739560 0.406191 0.471300 0.583122 -0.661699
2.350080 -0.239560 0.731108 0.471300 0.583122 -0.661699
2.810819 -0.522846 0.809626 0.471300 0.583122 -0.661699
2.512534 -0.739560 0.406191 0.187594 0.577345 -0.794658
1.924756 -0.548576 0.406191 0.187594 0.577345 -0.794658
2.350080 -0.239560 0.731108 0.187594 0.577345 -0.794658
1.924756 -0.548576 0.406191 -0.038530 0.748779 -0.661699
1.810824 -0.197922 0.809626 -0.038530 0.748779 -0.661699
2.350080 -0.239560 0.731108 -0.038530 0.748779 -0.661699
1.924756 -0.548576 0.406191 -0.408946 0.628425 -0.661698
1.399022 -0.548575 0.731109 -0.408946 0.628425 -0.661698
1.810824 -0.197922 0.809626 -0.408946 0.628425 -0.661698
1.924756 -0.548576 0.406191 -0.491119 0.356821 -0.794657
1.561482 -1.048572 0.406194 -0.491119 0.356821 -0.794657
1.399022 -0.548575 0.731109 -0.491119 0.356821 -0.794657
1.561482 -1.048572 0.406194 -0.724042 0.194736 -0.661695
1.192785 -1.048572 0.809630 -0.724042 0.194736 -0.661695
1.399022 -0.548575 0.731109 -0.724042 0.194736 -0.661695
1.561482 -1.048572 0.406194 -0.724042 -0.194736 -0.661695
1.399022 -1.548568 0.731109 -0.724042 -0.194736 -0.661695
1.192785 -1.048572 0.809630 -0.724042 -0.194736 -0.661695
1.561482 -1.048572 0.406194 -0.491119 -0.356821 -0.794657
1.924756 -1.548567 0.406191 -0.491119 -0.356821 -0.794657
1.399022 -1.548568 0.731109 -0.491119 -0.356821 -0.794657
1.924756 -1.548567 0.406191 -0.408946 -0.628425 -0.661699
1.810824 -1.899221 0.809626 -0.408946 -0.628425 -0.661699
1.399022 -1.548568 0.731109 -0.408946 -0.628425 -0.661699
2.937860 -1.048572 0.731110 0.700224 0.268032 -0.661699
2.512534 -0.739560 0.406191 0.700224 0.268032 -0.661699
2.810819 -0.522846 0.809626 0.700224 0.268032 -0.661699
2.937860 -1.048572 0.731110 0.607061 0.000000 -0.794656
2.512534 -1.357583 0.406191 0.607061 0.000000 -0.794656
2.512534 -0.739560 0.406191 0.607061 0.000000 -0.794656
2.512534 -1.357583 0.406191 0.331304 0.000000 -0.943524
2.087212 -1.048572 0.256845 0.331304 0.000000 -0.943524
2.512534 -0.739560 0.406191 0.331304 0.000000 -0.943524
1.924756 -1.548567 0.406191 -0.038530 -0.748779 -0.661699
2.350080 -1.857583 0.731108 -0.038530 -0.748779 -0.661699
1.810824 -1.899221 0.809626 -0.038530 -0.748779 -0.661699
1.924756 -1.548567 0.406191 0.187594 -0.577345 -0.794658
2.512534 -1.357583 0.406191 0.187594 -0.577345 -0.794658
2.350080 -1.857583 0.731108 0.187594 -0.577345 -0.794658
2.512534 -1.357583 0.406191 0.471300 -0.583122 -0.661699
2.810819 -1.574297 0.809626 0.471300 -0.583122 -0.661699
2.350080 -1.857583 0.731108 0.471300 -0.583122 -0.661699
3 0 1 2
3 3 4 5
3 6 7 8
3 9 10 11
3 12 13 14
3 15 16 17
3 18 19 20
3 21 22 23
3 24 25 26
3 27 28 29
3 30 31 32
3 33 34 35
3 36 37 38
3 39 40 41
3 42 43 44
3 45 46 47
3 48 49 50
3 51 52 53
3 54 55 56
3 57 58 59
3 60 61 62
3 63 64 65
3 66 67 68
3 69 70 71
3 72 73 74
3 75 76 77
3 78 79 80
3 81 82 83
3 84 85 86
3 87 88 89
3 90 91 92
3 93 94 95
3 96 97 98
3 99 100 101
3 102 103 104
3 105 106 107
3 108 109 110
3 111 112 113
3 114 115 116
3 117 118 119
3 120 121 122
3 123 124 125
3 126 127 128
3 129 130 131
3 132 133 134
3 135 136 137
3 138 139 140
3 141 142 143
3 144 145 146
3 147 148 149
3 150 151 152
3 153 154 155
3 156 157 158
3 159 160 161
3 162 163 164
3 165 166 167
3 168 169 170
3 171 172 173
3 174 175 176
3 177 178 179
3 180 181 182
3 183 184 185
3 186 187 188
3 189 190 191
3 192 193 194
3 195 196 197
3 198 199 200
3 201 202 203
3 204 205 206
3 207 208 209
3 210 211 212
3 213 214 215
3 216 217 218
3 219 220 221
3 222 223 224
3 225 226 227
3 228 229 230
3 231 232 233
3 234 235 236
3 237 238 239
